<svg width="42" height="42" viewBox="0 0 42 42" fill="none" xmlns="http://www.w3.org/2000/svg">
<path fill-rule="evenodd" clip-rule="evenodd" d="M11.4261 32.1604C18.5563 31.1188 23.4657 31.2083 30.6053 32.1969C31.1223 32.2718 31.5948 32.5313 31.9354 32.9275C32.276 33.3236 32.4618 33.8297 32.4584 34.3521C32.4584 34.8521 32.2865 35.3375 31.9761 35.7167C31.435 36.3778 30.8808 37.0279 30.3136 37.6667H33.0646C33.2375 37.4604 33.4115 37.25 33.5875 37.0365C34.2054 36.2788 34.5425 35.3308 34.5417 34.3531C34.5417 32.2438 33.0021 30.4261 30.8907 30.1344C23.5823 29.1229 18.474 29.0261 11.125 30.1C8.99171 30.4115 7.45837 32.2573 7.45837 34.3813C7.45837 35.324 7.76567 36.2563 8.34796 37.0115C8.51983 37.2344 8.68962 37.4531 8.85837 37.6677H11.5427C11.0151 37.036 10.5004 36.3935 9.999 35.7406C9.70104 35.3498 9.54031 34.8717 9.54171 34.3802C9.54171 33.2583 10.348 32.3177 11.4261 32.1604ZM21 22.0417C21.8208 22.0417 22.6335 21.88 23.3918 21.5659C24.1501 21.2518 24.8391 20.7915 25.4195 20.2111C25.9998 19.6307 26.4602 18.9417 26.7743 18.1834C27.0884 17.4252 27.25 16.6124 27.25 15.7917C27.25 14.9709 27.0884 14.1582 26.7743 13.3999C26.4602 12.6416 25.9998 11.9526 25.4195 11.3723C24.8391 10.7919 24.1501 10.3315 23.3918 10.0174C22.6335 9.70334 21.8208 9.54168 21 9.54168C19.3424 9.54168 17.7527 10.2002 16.5806 11.3723C15.4085 12.5444 14.75 14.1341 14.75 15.7917C14.75 17.4493 15.4085 19.039 16.5806 20.2111C17.7527 21.3832 19.3424 22.0417 21 22.0417ZM21 24.125C23.2102 24.125 25.3298 23.247 26.8926 21.6842C28.4554 20.1214 29.3334 18.0018 29.3334 15.7917C29.3334 13.5815 28.4554 11.4619 26.8926 9.89912C25.3298 8.33632 23.2102 7.45834 21 7.45834C18.7899 7.45834 16.6703 8.33632 15.1075 9.89912C13.5447 11.4619 12.6667 13.5815 12.6667 15.7917C12.6667 18.0018 13.5447 20.1214 15.1075 21.6842C16.6703 23.247 18.7899 24.125 21 24.125Z" fill="white"/>
<path fill-rule="evenodd" clip-rule="evenodd" d="M21 39.75C31.3552 39.75 39.75 31.3552 39.75 21C39.75 10.6448 31.3552 2.25001 21 2.25001C10.6448 2.25001 2.25002 10.6448 2.25002 21C2.25002 31.3552 10.6448 39.75 21 39.75ZM21 41.8333C32.5063 41.8333 41.8334 32.5063 41.8334 21C41.8334 9.49376 32.5063 0.166672 21 0.166672C9.49377 0.166672 0.166687 9.49376 0.166687 21C0.166687 32.5063 9.49377 41.8333 21 41.8333Z" fill="white"/>
</svg>
