<svg width="50" height="50" viewBox="0 0 50 50" fill="none" xmlns="http://www.w3.org/2000/svg">
<path d="M41.9531 16.3086C42.9253 15.1562 43.4158 13.6734 43.3227 12.1686C43.2296 10.6638 42.5601 9.25285 41.4533 8.22908C40.3465 7.20531 38.8877 6.64756 37.3802 6.67183C35.8727 6.69609 34.4326 7.30051 33.3594 8.35937C33.2969 8.41542 33.2441 8.48142 33.2031 8.55468L27.793 14.2578L11.3477 8.28125C11.1382 8.20239 10.9102 8.18625 10.6917 8.23481C10.4732 8.28337 10.2736 8.39452 10.1172 8.55468L5.42969 13.2422C5.30548 13.3628 5.20953 13.5094 5.14874 13.6715C5.08795 13.8336 5.06384 14.0072 5.07813 14.1797C5.09785 14.3528 5.15529 14.5194 5.24641 14.6679C5.33752 14.8164 5.46009 14.9431 5.60547 15.0391L18.4766 23.6133L15.1367 26.9531H10.9375C10.7837 26.9508 10.6312 26.9809 10.4899 27.0414C10.3485 27.102 10.2215 27.1917 10.1172 27.3047L5.42969 31.9922C5.28407 32.1296 5.17819 32.3037 5.1232 32.4961C5.0682 32.6886 5.06613 32.8924 5.11719 33.0859C5.15918 33.2805 5.25169 33.4606 5.38541 33.608C5.51914 33.7555 5.68935 33.8651 5.87891 33.9258L13.4961 36.5039L16.0742 44.1211C16.1349 44.3107 16.2445 44.4809 16.392 44.6146C16.5394 44.7483 16.7195 44.8408 16.9141 44.8828L17.1875 44.9219C17.3413 44.9242 17.4938 44.8941 17.6351 44.8336C17.7765 44.773 17.9035 44.6833 18.0078 44.5703L22.6953 39.8828C22.8083 39.7785 22.898 39.6515 22.9586 39.5101C23.0191 39.3688 23.0492 39.2163 23.0469 39.0625V34.9023L26.3867 31.8555L34.9609 44.4141C35.0616 44.5532 35.1899 44.6701 35.3377 44.7575C35.4856 44.8448 35.6499 44.9008 35.8203 44.9219C35.9928 44.9362 36.1664 44.912 36.3285 44.8513C36.4906 44.7905 36.6372 44.6945 36.7578 44.5703L41.4453 39.8828C41.6055 39.7264 41.7166 39.5268 41.7652 39.3083C41.8137 39.0898 41.7976 38.8618 41.7187 38.6523L35.7422 22.207L41.7578 16.5625C41.8335 16.4866 41.8992 16.4013 41.9531 16.3086ZM39.9805 14.9805L39.9023 15.0781L33.5742 21.0156C33.403 21.173 33.2834 21.3784 33.2311 21.605C33.1788 21.8316 33.1963 22.0687 33.2812 22.2852L39.2773 38.7695L36.1133 41.9141L27.5586 29.4141C27.4656 29.2779 27.3441 29.1636 27.2024 29.0793C27.0607 28.995 26.9023 28.9426 26.7383 28.9258H26.6016C26.3111 28.9277 26.032 29.0394 25.8203 29.2383L21.0938 33.5352C20.9697 33.641 20.8703 33.7729 20.8028 33.9214C20.7353 34.0699 20.7013 34.2314 20.7031 34.3945V38.5938L17.6953 41.582L15.5273 35.1953C15.47 35.0245 15.3728 34.8699 15.2437 34.7442C15.1146 34.6185 14.9574 34.5254 14.7852 34.4727L8.41797 32.3047L11.4258 29.2969H15.625C15.7788 29.2992 15.9313 29.2691 16.0726 29.2086C16.214 29.148 16.341 29.0583 16.4453 28.9453L21.1328 24.2578C21.257 24.1372 21.353 23.9906 21.4138 23.8285C21.4745 23.6664 21.4987 23.4928 21.4844 23.3203C21.4646 23.1472 21.4072 22.9806 21.3161 22.8321C21.225 22.6836 21.1024 22.5569 20.957 22.4609L8.08594 13.8867L11.2305 10.7227L27.7148 16.7187C27.9313 16.8037 28.1684 16.8212 28.395 16.7689C28.6216 16.7166 28.827 16.597 28.9844 16.4258L35.1758 9.88281L35.2148 9.82422C35.9074 9.24945 36.794 8.96217 37.692 9.02153C38.59 9.08089 39.431 9.48238 40.0419 10.1433C40.6527 10.8042 40.9868 11.6742 40.9754 12.5741C40.964 13.474 40.6079 14.3353 39.9805 14.9805Z" fill="white"/>
</svg>
