<svg width="45" height="45" viewBox="0 0 45 45" fill="none" xmlns="http://www.w3.org/2000/svg">
<path opacity="0.3" d="M9.375 11.25H35.625V15H9.375V11.25Z" fill="black"/>
<path d="M35.625 7.5H33.75V3.75H30V7.5H15V3.75H11.25V7.5H9.375C7.29375 7.5 5.64375 9.1875 5.64375 11.25L5.625 37.5C5.625 38.4946 6.02009 39.4484 6.72335 40.1516C7.42661 40.8549 8.38044 41.25 9.375 41.25H35.625C37.6875 41.25 39.375 39.5625 39.375 37.5V11.25C39.375 9.1875 37.6875 7.5 35.625 7.5ZM35.625 37.5H9.375V18.75H35.625V37.5ZM35.625 15H9.375V11.25H35.625V15ZM16.875 26.25H13.125V22.5H16.875V26.25ZM24.375 26.25H20.625V22.5H24.375V26.25ZM31.875 26.25H28.125V22.5H31.875V26.25ZM16.875 33.75H13.125V30H16.875V33.75ZM24.375 33.75H20.625V30H24.375V33.75ZM31.875 33.75H28.125V30H31.875V33.75Z" fill="#52575A"/>
</svg>
